<svg width="302" height="279" viewBox="0 0 302 279" fill="none" xmlns="http://www.w3.org/2000/svg">
<path d="M151 279C123.671 279 98.4056 272.779 75.2051 260.336C52.0046 247.894 33.6702 230.956 20.2021 209.522C6.73405 188.089 0 164.748 0 139.5C0 114.252 6.73405 90.9111 20.2021 69.4775C33.6702 48.0439 52.0046 31.106 75.2051 18.6636C98.4056 6.22119 123.671 0 151 0C178.329 0 203.594 6.22119 226.795 18.6636C249.995 31.106 268.33 48.0439 281.798 69.4775C295.266 90.9111 302 114.252 302 139.5C302 164.748 295.266 188.089 281.798 209.522C268.33 230.956 249.995 247.894 226.795 260.336C203.594 272.779 178.329 279 151 279ZM151 34.875C130.552 34.875 111.628 39.5522 94.2275 48.9067C76.8271 58.2612 63.0641 70.9761 52.9385 87.0513C42.8128 103.126 37.75 120.609 37.75 139.5C37.75 158.391 42.8128 175.874 52.9385 191.949C63.0641 208.024 76.8271 220.739 94.2275 230.093C111.628 239.448 130.552 244.125 151 244.125C171.448 244.125 190.372 239.448 207.772 230.093C225.173 220.739 238.936 208.024 249.062 191.949C259.187 175.874 264.25 158.391 264.25 139.5C264.25 120.609 259.187 103.126 249.062 87.0513C238.936 70.9761 225.173 58.2612 207.772 48.9067C190.372 39.5522 171.448 34.875 151 34.875ZM151.147 174.375C145.937 174.375 141.464 172.649 137.729 169.198C133.993 165.747 132.125 161.66 132.125 156.938L113.25 87.1875C113.25 77.5605 116.937 69.3413 124.31 62.5298C131.683 55.7183 140.579 52.3125 151 52.3125C161.421 52.3125 170.317 55.7183 177.69 62.5298C185.063 69.3413 188.75 77.5605 188.75 87.1875L169.875 156.938C169.875 161.66 168.056 165.747 164.419 169.198C160.782 172.649 156.358 174.375 151.147 174.375ZM151 191.812C156.309 191.812 160.782 193.493 164.419 196.853C168.056 200.213 169.875 204.3 169.875 209.114C169.875 213.927 168.007 218.06 164.271 221.511C160.536 224.962 156.063 226.688 150.853 226.688C145.642 226.688 141.218 224.962 137.581 221.511C133.944 218.06 132.125 213.927 132.125 209.114C132.125 204.3 133.944 200.213 137.581 196.853C141.218 193.493 145.691 191.812 151 191.812Z" fill="#FF0000"/>
</svg>
