<svg width="100" height="100" viewBox="0 0 100 100" fill="none" xmlns="http://www.w3.org/2000/svg">
<path d="M86.1111 88.8889C86.1111 91.8357 84.9405 94.6619 82.8567 96.7456C80.773 98.8294 77.9468 100 75 100H13.8889C10.942 100 8.11588 98.8294 6.03214 96.7456C3.9484 94.6619 2.77777 91.8357 2.77777 88.8889V11.1111C2.77777 8.16426 3.9484 5.33811 6.03214 3.25437C8.11588 1.17063 10.942 0 13.8889 0L75 0C77.9468 0 80.773 1.17063 82.8567 3.25437C84.9405 5.33811 86.1111 8.16426 86.1111 11.1111V88.8889Z" fill="#CCD6DD"/>
<path d="M75 66.6667C75 67.4034 74.7073 68.1099 74.1864 68.6309C73.6654 69.1518 72.9589 69.4445 72.2222 69.4445H16.6666C15.9299 69.4445 15.2234 69.1518 14.7024 68.6309C14.1815 68.1099 13.8889 67.4034 13.8889 66.6667C13.8889 65.93 14.1815 65.2234 14.7024 64.7025C15.2234 64.1816 15.9299 63.8889 16.6666 63.8889H72.2222C72.9589 63.8889 73.6654 64.1816 74.1864 64.7025C74.7073 65.2234 75 65.93 75 66.6667ZM30.5555 77.7778C30.5555 78.5145 30.2629 79.2211 29.7419 79.742C29.221 80.2629 28.5145 80.5556 27.7777 80.5556H16.6666C15.9299 80.5556 15.2234 80.2629 14.7024 79.742C14.1815 79.2211 13.8889 78.5145 13.8889 77.7778C13.8889 77.0411 14.1815 76.3345 14.7024 75.8136C15.2234 75.2927 15.9299 75 16.6666 75H27.7777C28.5145 75 29.221 75.2927 29.7419 75.8136C30.2629 76.3345 30.5555 77.0411 30.5555 77.7778ZM75 22.2222C75 22.9589 74.7073 23.6655 74.1864 24.1864C73.6654 24.7074 72.9589 25 72.2222 25H16.6666C15.9299 25 15.2234 24.7074 14.7024 24.1864C14.1815 23.6655 13.8889 22.9589 13.8889 22.2222C13.8889 21.4855 14.1815 20.779 14.7024 20.2581C15.2234 19.7371 15.9299 19.4445 16.6666 19.4445H72.2222C72.9589 19.4445 73.6654 19.7371 74.1864 20.2581C74.7073 20.779 75 21.4855 75 22.2222ZM75 33.3334C75 34.0701 74.7073 34.7766 74.1864 35.2975C73.6654 35.8185 72.9589 36.1111 72.2222 36.1111H16.6666C15.9299 36.1111 15.2234 35.8185 14.7024 35.2975C14.1815 34.7766 13.8889 34.0701 13.8889 33.3334C13.8889 32.5966 14.1815 31.8901 14.7024 31.3692C15.2234 30.8482 15.9299 30.5556 16.6666 30.5556H72.2222C72.9589 30.5556 73.6654 30.8482 74.1864 31.3692C74.7073 31.8901 75 32.5966 75 33.3334ZM75 44.4445C75 45.1812 74.7073 45.8877 74.1864 46.4087C73.6654 46.9296 72.9589 47.2222 72.2222 47.2222H16.6666C15.9299 47.2222 15.2234 46.9296 14.7024 46.4087C14.1815 45.8877 13.8889 45.1812 13.8889 44.4445C13.8889 43.7078 14.1815 43.0012 14.7024 42.4803C15.2234 41.9593 15.9299 41.6667 16.6666 41.6667H72.2222C72.9589 41.6667 73.6654 41.9593 74.1864 42.4803C74.7073 43.0012 75 43.7078 75 44.4445ZM75 55.5556C75 56.2923 74.7073 56.9988 74.1864 57.5198C73.6654 58.0407 72.9589 58.3334 72.2222 58.3334H16.6666C15.9299 58.3334 15.2234 58.0407 14.7024 57.5198C14.1815 56.9988 13.8889 56.2923 13.8889 55.5556C13.8889 54.8189 14.1815 54.1123 14.7024 53.5914C15.2234 53.0705 15.9299 52.7778 16.6666 52.7778H72.2222C72.9589 52.7778 73.6654 53.0705 74.1864 53.5914C74.7073 54.1123 75 54.8189 75 55.5556Z" fill="#99AAB5"/>
<path d="M86.1112 17.4222C83.814 15.9361 81.0084 15.8139 79.1084 17.3583L76.9084 19.1528L72.7862 22.5167L72.5084 22.7389L65.9084 28.1222L32.914 55.0278C31.7001 56.0194 30.7112 58.4139 29.6556 60.7889C28.6056 63.15 26.964 68.7111 25.6473 72.9861C25.2362 73.6805 22.689 78.1139 24.1168 79.8C25.5612 81.5083 30.5779 79.8278 31.2501 79.5889C35.7668 79.1055 41.614 78.5528 44.1612 77.9778C46.7279 77.3917 49.3112 76.8805 50.5251 75.8889C50.5473 75.8722 50.5529 75.8389 50.5723 75.825L83.5112 48.975L85.7112 47.1806L86.1112 46.8528V17.4222Z" fill="#66757F"/>
<path d="M50.4028 62.5722C50.4028 62.5722 46.8639 57.3472 44.5222 55.4806C42.6556 53.1389 37.4417 49.6028 37.4417 49.6028C36.1972 48.3639 34.1334 48.2694 32.9167 49.4833C31.7028 50.7 30.7139 53.2778 29.6584 55.8472C28.3472 59.0306 26.1139 67.3861 24.7472 71.825C24.5167 72.5806 26.1834 70.575 26.1445 71.2417C26.1167 71.7611 26.2195 72.3361 26.35 72.8556L25.9445 73.2972L26.5222 73.4833C26.5917 73.7111 26.6611 73.9111 26.7111 74.0667L27.1528 73.6611C27.6722 73.7917 28.2472 73.8944 28.7639 73.8667C29.4306 73.8278 27.4222 75.4972 28.1806 75.2639C32.6195 73.8944 40.9778 71.6639 44.1584 70.3528C46.725 69.2944 49.3083 68.3083 50.5222 67.0917C51.7417 65.8833 51.65 63.8194 50.4028 62.5722Z" fill="#D99E82"/>
<path d="M70.3112 12.0861C69.7327 12.6635 69.2737 13.3493 68.9605 14.1044C68.6474 14.8594 68.4862 15.6687 68.4862 16.4861C68.4862 17.3035 68.6474 18.1128 68.9605 18.8678C69.2737 19.6228 69.7327 20.3087 70.3112 20.8861L79.1084 29.6861C80.276 30.8518 81.8585 31.5065 83.5084 31.5065C85.1583 31.5065 86.7408 30.8518 87.9084 29.6861L96.7112 20.8861C97.8769 19.7185 98.5315 18.136 98.5315 16.4861C98.5315 14.8362 97.8769 13.2537 96.7112 12.0861L87.9084 3.28608C87.3306 2.70823 86.6446 2.24984 85.8897 1.93711C85.1347 1.62437 84.3256 1.46341 83.5084 1.46341C82.6912 1.46341 81.8821 1.62437 81.1271 1.93711C80.3722 2.24984 79.6862 2.70823 79.1084 3.28608L70.3112 12.0861Z" fill="#EA596E"/>
<path d="M32.9139 49.4861L41.7194 58.2917L50.5111 67.0861L83.5139 34.0889L65.9111 16.4889L32.9139 49.4861Z" fill="#FFCC4D"/>
<path d="M31.3832 74.2833C31.3832 74.2833 25.661 77.4306 24.1166 75.8833C22.5694 74.3333 25.7305 68.6306 25.7305 68.6306C25.7305 68.6306 31.1499 68.7306 31.3832 74.2833Z" fill="#292F33"/>
<path d="M65.9112 16.4861L76.9112 5.48611L94.5112 23.0889L83.5112 34.0889L65.9112 16.4861Z" fill="#CCD6DD"/>
<path d="M72.5084 9.88332L74.7084 7.68332L92.3084 25.2805L90.1084 27.4805L72.5084 9.88332ZM68.1111 14.2833L70.3084 12.0861L87.9084 29.6833L85.7084 31.8833L68.1111 14.2833Z" fill="#99AAB5"/>
</svg>
